<svg width="120" height="32" viewBox="0 0 120 32" fill="none" xmlns="http://www.w3.org/2000/svg">
<path d="M0.52328 16.2982H8.43689C11.8264 16.3234 14.6167 18.3162 15.0439 21.7124H15.8932C16.3228 18.2997 19.1383 16.2964 22.5497 16.2964H29.9967V23.2522H24.771V24.0095H30.3617C30.4588 24.0095 30.5518 23.9696 30.6204 23.8985C30.6891 23.8274 30.7276 23.731 30.7276 23.6304V15.9148C30.7276 15.8142 30.6891 15.7178 30.6204 15.6467C30.5518 15.5756 30.4588 15.5357 30.3617 15.5357H22.5488C19.1375 15.5357 16.322 13.5359 15.8923 10.1189H15.0431C14.6134 13.5324 11.7979 15.5357 8.38654 15.5357H0.893374C0.922746 13.2803 0.969728 9.7276 0.985673 8.57989H6.16854V7.82173H0.684394C0.666623 7.81888 0.648673 7.81743 0.63069 7.81738C0.529147 7.81738 0.300048 7.85478 0.265641 8.20083C0.265641 8.20865 0.265641 8.21648 0.265641 8.22343C0.265641 8.23039 0.265641 8.25819 0.265641 8.27645L0.249686 9.3972C0.239616 10.1206 0.227034 11.0857 0.214446 12.0508L0.164097 15.9104C0.163435 15.9606 0.172369 16.0104 0.190373 16.0569C0.208377 16.1035 0.235095 16.1459 0.268996 16.1817C0.336467 16.2525 0.427344 16.2941 0.52328 16.2982Z" fill="#0A337A"/>
<path d="M9.71893 24.1785H21.2159V23.0934H9.71893V24.1785Z" fill="#0A337A"/>
<path d="M4.22131 32.0002H4.26495C5.31901 32.0093 6.33934 31.6155 7.13081 30.8942C7.57794 30.4856 7.93553 29.9827 8.17957 29.4191C8.42361 28.8555 8.54845 28.2444 8.5457 27.6267V17.6765H7.49836V27.6267C7.50075 28.102 7.40258 28.572 7.21076 29.0038C7.01894 29.4355 6.73814 29.8184 6.38811 30.1256C5.79674 30.6424 5.04614 30.9225 4.2725 30.9151H4.22049C3.76177 30.9175 3.30808 30.8158 2.89139 30.6171C2.4747 30.4183 2.10511 30.1274 1.80862 29.7648C1.30975 29.1521 1.03942 28.3744 1.04664 27.5728V27.5189C1.03942 26.7173 1.30975 25.9397 1.80862 25.327C2.10514 24.9644 2.47476 24.6735 2.89144 24.4747C3.30813 24.276 3.76178 24.1743 4.22049 24.1767H6.3235V23.0933H4.22049C3.62431 23.0904 3.03443 23.2198 2.49049 23.4726C1.94654 23.7255 1.4611 24.096 1.06677 24.5592C0.371053 25.3792 -0.00867012 26.4359 0.000150281 27.5276V27.565C-0.0086454 28.6571 0.371401 29.7142 1.06761 30.5342C1.46191 30.9976 1.94736 31.3681 2.49131 31.6209C3.03526 31.8738 3.62512 32.0031 4.22131 32.0002Z" fill="#0A337A"/>
<path d="M9.71954 8.74246H21.2165V7.65735H9.71954V8.74246Z" fill="#0A337A"/>
<path d="M8.54596 4.45784C8.55893 3.61644 8.86924 2.80916 9.41812 2.18888C9.96699 1.5686 10.7163 1.1784 11.5243 1.09212C11.9617 1.06117 12.4006 1.12361 12.8138 1.27555C13.227 1.42749 13.6057 1.66571 13.9265 1.97544C14.2472 2.28517 14.5032 2.65983 14.6785 3.07621C14.8538 3.49259 14.9447 3.94182 14.9457 4.3961V6.44023H15.9896V4.3961C15.9896 3.22904 15.5422 2.1098 14.7457 1.28457C13.9492 0.459337 12.8689 -0.00427246 11.7424 -0.00427246C10.616 -0.00427246 9.53577 0.459337 8.73927 1.28457C7.94277 2.1098 7.4953 3.22904 7.4953 4.3961V14.155H8.54261L8.54596 4.45784Z" fill="#0A337A"/>
<path d="M29.5752 1.20357C28.7692 0.419813 27.7023 -0.0112771 26.597 0.000224362C25.8262 -0.004569 25.0699 0.216359 24.415 0.637548C23.8001 1.03182 23.2925 1.5821 22.94 2.23631C22.5876 2.89052 22.4021 3.62707 22.401 4.37629V14.1657H23.4483V4.37366C23.45 3.81029 23.5902 3.25667 23.8557 2.765C24.1211 2.27333 24.5031 1.85984 24.9656 1.56354C25.4614 1.24567 26.034 1.07987 26.6171 1.08534C27.4498 1.07608 28.2537 1.40033 28.8611 1.99044C29.3213 2.44334 29.6398 3.02876 29.7756 3.67112C29.9113 4.31347 29.8581 4.98325 29.6227 5.59394C29.3874 6.20463 28.9807 6.72819 28.4553 7.09699C27.9298 7.4658 27.3097 7.66292 26.675 7.66289H24.6198V8.74797H26.675C27.519 8.74794 28.3436 8.48578 29.0423 7.99533C29.7411 7.50489 30.2819 6.80869 30.5949 5.99662C30.908 5.18455 30.9789 4.29389 30.7984 3.43966C30.618 2.58543 30.1946 1.80686 29.5828 1.20445L29.5752 1.20357Z" fill="#0A337A"/>
<path d="M22.3925 27.4867C22.3835 28.3478 22.061 29.1737 21.4895 29.7991C20.918 30.4244 20.1396 30.8031 19.3102 30.8594C18.8803 30.8757 18.4517 30.8021 18.0499 30.643C17.6482 30.4838 17.2815 30.2424 16.9718 29.9331C16.6621 29.6237 16.4158 29.2529 16.2476 28.8427C16.0794 28.4326 15.9928 27.9915 15.9928 27.5458V25.3939H14.9455V27.5458C14.944 28.1238 15.0531 28.6964 15.2666 29.2303C15.4801 29.7643 15.7937 30.2492 16.1892 30.6568L16.2102 30.6785C17.003 31.4926 18.0748 31.9481 19.191 31.9453H19.2514C20.366 31.9246 21.4284 31.4526 22.2111 30.6303C22.9938 29.8079 23.4346 28.7007 23.439 27.5458V17.6799H22.3917L22.3925 27.4867Z" fill="#0A337A"/>
<path d="M50.2548 8.03966L46.2921 19.5332L42.3479 8.06577L39.2848 8.07617L44.8738 24.2205L47.7195 24.2109L53.2977 8.03186L50.2548 8.03966Z" fill="#0A337A"/>
<path d="M62.1727 11.9399V13.2441C61.706 12.7322 61.1426 12.3253 60.5176 12.0486C59.8927 11.7719 59.2195 11.6313 58.5398 11.6356C55.5414 11.6452 53.1152 14.2197 53.127 17.9567C53.1379 21.6258 55.7092 24.229 58.643 24.2169C59.3101 24.2232 59.9711 24.0852 60.5837 23.8118C61.1964 23.5385 61.7473 23.1357 62.2012 22.6292V23.8899L65.0906 23.8804L65.0545 11.9277L62.1727 11.9399ZM59.16 21.472C58.7263 21.4646 58.2987 21.3654 57.9035 21.1805C57.5082 20.9955 57.1536 20.7287 56.8616 20.3965C56.5695 20.0643 56.3462 19.6737 56.2053 19.2487C56.0645 18.8237 56.009 18.3734 56.0424 17.9254C56.0365 15.9673 57.2265 14.3875 59.139 14.3806C60.0024 14.4449 60.8104 14.8448 61.4011 15.5003C61.9919 16.1559 62.3217 17.0185 62.3244 17.9153C62.3272 18.8122 62.0027 19.6769 61.416 20.3364C60.8293 20.9958 60.0238 21.4011 59.1608 21.4711L59.16 21.472Z" fill="#0A337A"/>
<path d="M72.3324 16.6518L71.2658 16.0928C70.6347 15.7572 70.221 15.5563 70.2201 15.1059C70.2201 14.6329 70.6741 14.3842 71.2607 14.3825C72.042 14.457 72.7628 14.8498 73.2647 15.4746L75.0405 13.6008C74.6004 12.985 74.026 12.4856 73.3641 12.1435C72.7023 11.8014 71.9718 11.6263 71.2322 11.6324C70.7666 11.5971 70.299 11.6594 69.8572 11.8154C69.4154 11.9715 69.0084 12.2182 68.6606 12.5407C68.3128 12.8633 68.0312 13.2551 67.8327 13.6928C67.6343 14.1306 67.5229 14.6052 67.5053 15.0885C67.5095 16.5962 68.4478 17.7648 70.2973 18.7264L71.2767 19.2411C72.0823 19.6663 72.5606 20.0471 72.5623 20.5653C72.5623 21.1053 72.0001 21.5348 71.2834 21.5374C70.3322 21.4229 69.4635 20.9227 68.8674 20.1462L67.0916 22.1773C67.5588 22.8286 68.1705 23.3536 68.8751 23.7079C69.5796 24.0622 70.3562 24.2354 71.1391 24.2128C73.6566 24.2049 75.2839 22.6008 75.278 20.4627C75.2721 18.6916 74.2474 17.6587 72.3324 16.6518Z" fill="#0A337A"/>
<path d="M80.1388 12.2577L77.2495 12.2671L77.2857 24.2205L80.175 24.2111L80.1388 12.2577Z" fill="#0A337A"/>
<path d="M78.6683 6.95629C78.4316 6.95075 78.1962 6.99358 77.9756 7.08238C77.7549 7.17117 77.5533 7.30417 77.3823 7.47376C77.2113 7.64334 77.0743 7.84616 76.979 8.07067C76.8837 8.29518 76.8321 8.53696 76.8271 8.78215C76.8178 9.04383 76.8583 9.30484 76.9464 9.55026C77.0345 9.79569 77.1685 10.0207 77.3405 10.2125C77.5126 10.4043 77.7195 10.559 77.9493 10.6679C78.1791 10.7768 78.4274 10.8377 78.68 10.8471C78.9226 10.8465 79.1627 10.7962 79.3865 10.6994C79.6104 10.6025 79.8137 10.4609 79.9846 10.2826C80.1556 10.1043 80.291 9.89281 80.3831 9.66027C80.4752 9.42774 80.5221 9.17869 80.5212 8.92735C80.525 8.67173 80.48 8.41787 80.3888 8.18031C80.2977 7.94275 80.1621 7.72615 79.9899 7.54301C79.8178 7.35987 79.6124 7.2138 79.3856 7.1131C79.1588 7.01241 78.915 6.95912 78.6683 6.95629Z" fill="#0A337A"/>
<path d="M87.6995 12.2522L85.9833 12.2574L85.9699 7.8457L83.0806 7.85526L83.094 12.267L81.617 12.2713L81.6246 14.838L83.1016 14.8336L83.1301 24.2239L86.0195 24.2143L85.9909 14.8241L87.7071 14.818L87.6995 12.2522Z" fill="#0A337A"/>
<path d="M96.5196 11.9672L96.5389 18.3378C96.5448 20.3637 95.9179 21.4679 94.3755 21.474C92.8549 21.4792 92.1994 20.3558 92.1936 18.2169L92.1751 11.9811L89.2858 11.9907L89.3017 17.4605C89.2641 18.3029 89.3031 19.1472 89.4184 19.982C89.8833 22.7721 91.6003 24.2294 94.3847 24.2207C95.0736 24.2706 95.7646 24.1598 96.4067 23.8967C97.0489 23.6335 97.6261 23.2246 98.0956 22.6999C99.3083 21.3001 99.4333 19.6794 99.4266 17.4736L99.4098 11.9585L96.5196 11.9672Z" fill="#0A337A"/>
<path d="M119.117 13.2922C118.734 12.8382 118.258 12.4784 117.724 12.2387C117.189 11.9989 116.61 11.8854 116.028 11.9062C115.262 11.8976 114.506 12.0904 113.831 12.4666C113.156 12.8427 112.584 13.39 112.168 14.0573C111.864 13.4025 111.384 12.8529 110.785 12.4752C110.186 12.0976 109.494 11.9081 108.794 11.9297C108.111 11.9332 107.438 12.0865 106.817 12.3795C106.196 12.6725 105.642 13.0985 105.192 13.6295V12.2566L102.302 12.2662L102.338 24.2188L105.228 24.2092L105.21 18.3568C105.203 15.9032 106.242 14.6842 107.676 14.6798C109.284 14.6746 109.723 16.091 109.729 18.4099L109.747 24.1953L112.636 24.1858L112.618 18.2881C112.61 15.8345 113.649 14.6607 115.105 14.6555C116.408 14.6555 117.085 15.6172 117.092 17.5752L117.112 24.171L120.001 24.1614L119.98 17.1604C119.972 15.5858 119.881 14.2808 119.117 13.2922Z" fill="#0A337A"/>
</svg>
